<svg xmlns="http://www.w3.org/2000/svg" width="326.7" height="490.9" viewBox="0 0 326.7 490.9">
  <g id="icono-microfono" transform="translate(-82.1)">
    <g id="Grupo_1" data-name="Grupo 1">
      <path id="Trazado_1" data-name="Trazado 1" d="M245.5,322.9a96.367,96.367,0,0,0,96.2-96.2V96.2a96.2,96.2,0,1,0-192.4,0V226.7A96.3,96.3,0,0,0,245.5,322.9ZM173.8,96.2a71.7,71.7,0,0,1,143.4,0V226.7a71.7,71.7,0,1,1-143.4,0V96.2Z" fill="#fff"/>
      <path id="Trazado_2" data-name="Trazado 2" d="M94.4,214.5a12.291,12.291,0,0,0-12.3,12.3c0,85.9,66.7,156.6,151.1,162.8v76.7H169.3a12.3,12.3,0,1,0,0,24.6H321.6a12.3,12.3,0,0,0,0-24.6H257.7V389.6c84.4-6.3,151.1-76.9,151.1-162.8a12.3,12.3,0,1,0-24.6,0c0,76.6-62.3,138.9-138.9,138.9S106.4,303.4,106.4,226.8A11.916,11.916,0,0,0,94.4,214.5Z" fill="#fff"/>
    </g>
  </g>
</svg>
